<?xml version="1.0" standalone="no"?><!DOCTYPE svg PUBLIC "-//W3C//DTD SVG 1.1//EN" 	"http://www.w3.org/Graphics/SVG/1.1/DTD/svg11.dtd"><svg width="1920" height="871" version="1.1"	xmlns="http://www.w3.org/2000/svg"><title>Krona (snapshot) - Root</title><defs>	<style type="text/css">	text {font-size: 11px; font-family: sans-serif; dominant-baseline:central}	path {stroke-width:0.27499999999999997;}	path.wedge {stroke:none}	path.line {fill:none;stroke:black;}	line {stroke:black;stroke-width:0.27499999999999997;}	line.tick {stroke-width:0.5499999999999999;}	line.pattern {stroke-width:0.18333333333333332;}	circle {fill:none;stroke:black;stroke-width:0.27499999999999997;}	rect {stroke:black;stroke-width:0.27499999999999997;}	.highlight {stroke:black;stroke-width:1.375;}	.searchHighlight {fill:rgb(255, 255, 100);stroke:none;}	</style><pattern id="hiddenPattern" patternUnits="userSpaceOnUse" x="0" y="0" width="6.6" height="6.6"><line class="pattern" x1="0" y1="0" x2="3.3" y2="3.3"/><line class="pattern" x1="3.3" y1="6.6" x2="6.6" y2="3.3"/></pattern></defs><path class="wedge" fill="rgb(207,112,112)" d=" M 885,522.6 L 885,783.9 A 348.4,348.4 0 1,1 1201.313823867616,581.5415174881674 L 964.078455966904,472.0103793720418 A 87.1,87.1 0 1 0 885,522.6 Z "/><path class="wedge" fill="rgb(207,112,112)" d=" M 885,522.6 L 885,783.9 A 348.4,348.4 0 1,1 1201.313823867616,581.5415174881674 L 964.078455966904,472.0103793720418 A 87.1,87.1 0 1 0 885,522.6 Z "/><path class="wedge" fill="rgb(207,112,112)" d=" M 885,522.6 L 885,783.9 A 348.4,348.4 0 1,1 1201.313823867616,581.5415174881674 L 964.078455966904,472.0103793720418 A 87.1,87.1 0 1 0 885,522.6 Z "/><path class="wedge" fill="rgb(211,123,123)" d=" M 885,574.7002383130814 L 885,783.9 A 348.4,348.4 0 0,1 552.6999141535617,330.81374041236484 L 752.2323446002249,393.67350091072353 A 139.20023831308143,139.20023831308143 0 0 0 885,574.7002383130814 Z "/><path class="wedge" fill="rgb(214,134,134)" d=" M 885,617.4136100076885 L 885,783.9 A 348.4,348.4 0 0,1 544.2692625408624,508.1988620994322 L 707.0908194840022,473.4589909528095 A 181.91361000768848,181.91361000768848 0 0 0 885,617.4136100076885 Z "/><path class="wedge" fill="rgb(218,145,145)" d=" M 885,653.0619046013655 L 885,783.9 A 348.4,348.4 0 0,1 562.488443236919,567.2909547512802 L 683.604395679313,517.7981949624595 A 217.56190460136557,217.56190460136557 0 0 0 885,653.0619046013655 Z "/><path class="wedge" fill="rgb(222,156,156)" d=" M 885,683.260939044402 L 885,783.9 A 348.4,348.4 0 0,1 715.9966462116598,740.1644488749764 L 764.8150699303891,652.1588689630005 A 247.76093904440202,247.76093904440202 0 0 0 885,683.260939044402 Z "/><path class="wedge" fill="rgb(222,159,156)" d=" M 764.8150699303891,652.1588689630005 L 715.9966462116598,740.1644488749764 A 348.4,348.4 0 0,1 591.3506323251363,622.9902900529855 L 676.174388390014,568.8317173514208 A 247.76093904440202,247.76093904440202 0 0 0 764.8150699303891,652.1588689630005 Z "/><path class="wedge" fill="rgb(222,162,156)" d=" M 676.174388390014,568.8317173514208 L 591.3506323251363,622.9902900529855 A 348.4,348.4 0 0,1 565.6780656511072,574.8415309363343 L 657.917616786003,534.5912415403868 A 247.76093904440202,247.76093904440202 0 0 0 676.174388390014,568.8317173514208 Z "/><path class="wedge" fill="rgb(222,163,156)" d=" M 657.917616786003,534.5912415403868 L 565.6780656511072,574.8415309363343 A 348.4,348.4 0 0,1 562.488443236919,567.2909547512802 L 655.6493508717195,529.2217299274841 A 247.76093904440202,247.76093904440202 0 0 0 657.917616786003,534.5912415403868 Z "/><path class="wedge" fill="url(#hiddenPattern)" d=" M 657.917616786003,534.5912415403868 L 565.6780656511072,574.8415309363343 A 348.4,348.4 0 0,1 562.488443236919,567.2909547512802 L 655.6493508717195,529.2217299274841 A 247.76093904440202,247.76093904440202 0 0 0 657.917616786003,534.5912415403868 Z "/><path class="wedge" fill="rgb(218,153,145)" d=" M 683.604395679313,517.7981949624595 L 562.488443236919,567.2909547512802 A 348.4,348.4 0 0,1 544.2692625408624,508.1988620994322 L 672.2272439786515,480.89753989869257 A 217.56190460136557,217.56190460136557 0 0 0 683.604395679313,517.7981949624595 Z "/><path class="wedge" fill="rgb(218,153,145)" d=" M 683.604395679313,517.7981949624595 L 562.488443236919,567.2909547512802 A 348.4,348.4 0 0,1 544.2692625408624,508.1988620994322 L 672.2272439786515,480.89753989869257 A 217.56190460136557,217.56190460136557 0 0 0 683.604395679313,517.7981949624595 Z "/><path class="wedge" fill="rgb(214,145,134)" d=" M 707.0908194840022,473.4589909528095 L 544.2692625408624,508.1988620994322 A 348.4,348.4 0 0,1 546.2475368128196,354.07931046338445 L 708.1237558054632,392.9869932177929 A 181.91361000768848,181.91361000768848 0 0 0 707.0908194840022,473.4589909528095 Z "/><path class="wedge" fill="rgb(218,155,145)" d=" M 672.2272439786515,480.89753989869257 L 544.2692625408624,508.1988620994322 A 348.4,348.4 0 0,1 539.9714360556952,387.1486808604898 L 669.5434227508697,405.30652961544115 A 217.56190460136557,217.56190460136557 0 0 0 672.2272439786515,480.89753989869257 Z "/><path class="wedge" fill="rgb(218,155,145)" d=" M 672.2272439786515,480.89753989869257 L 544.2692625408624,508.1988620994322 A 348.4,348.4 0 0,1 539.9714360556952,387.1486808604898 L 669.5434227508697,405.30652961544115 A 217.56190460136557,217.56190460136557 0 0 0 672.2272439786515,480.89753989869257 Z "/><path class="wedge" fill="rgb(218,157,145)" d=" M 669.5434227508697,405.30652961544115 L 539.9714360556952,387.1486808604898 A 348.4,348.4 0 0,1 546.2475368128196,354.07931046338445 L 673.4625973610592,384.6560267234714 A 217.56190460136557,217.56190460136557 0 0 0 669.5434227508697,405.30652961544115 Z "/><path class="wedge" fill="rgb(218,157,145)" d=" M 669.5434227508697,405.30652961544115 L 539.9714360556952,387.1486808604898 A 348.4,348.4 0 0,1 546.2475368128196,354.07931046338445 L 673.4625973610592,384.6560267234714 A 217.56190460136557,217.56190460136557 0 0 0 669.5434227508697,405.30652961544115 Z "/><path class="wedge" fill="rgb(214,148,134)" d=" M 708.1237558054632,392.9869932177929 L 546.2475368128196,354.07931046338445 A 348.4,348.4 0 0,1 552.6999141535617,330.81374041236484 L 711.4928007399817,380.8391062003769 A 181.91361000768848,181.91361000768848 0 0 0 708.1237558054632,392.9869932177929 Z "/><path class="wedge" fill="rgb(214,148,134)" d=" M 708.1237558054632,392.9869932177929 L 546.2475368128196,354.07931046338445 A 348.4,348.4 0 0,1 552.6999141535617,330.81374041236484 L 711.4928007399817,380.8391062003769 A 181.91361000768848,181.91361000768848 0 0 0 708.1237558054632,392.9869932177929 Z "/><path class="wedge" fill="rgb(214,148,134)" d=" M 708.1237558054632,392.9869932177929 L 546.2475368128196,354.07931046338445 A 348.4,348.4 0 0,1 552.6999141535617,330.81374041236484 L 711.4928007399817,380.8391062003769 A 181.91361000768848,181.91361000768848 0 0 0 708.1237558054632,392.9869932177929 Z "/><path class="wedge" fill="rgb(211,139,123)" d=" M 752.2323446002249,393.67350091072353 L 552.6999141535617,330.81374041236484 A 348.4,348.4 0 0,1 987.6177200377724,102.55531460278667 L 926.0000318151635,302.47480036634323 A 139.20023831308143,139.20023831308143 0 0 0 752.2323446002249,393.67350091072353 Z "/><path class="wedge" fill="rgb(211,139,123)" d=" M 752.2323446002249,393.67350091072353 L 552.6999141535617,330.81374041236484 A 348.4,348.4 0 0,1 987.6177200377724,102.55531460278667 L 926.0000318151635,302.47480036634323 A 139.20023831308143,139.20023831308143 0 0 0 752.2323446002249,393.67350091072353 Z "/><path class="wedge" fill="rgb(214,149,134)" d=" M 711.4928007399817,380.8391062003769 L 552.6999141535617,330.81374041236484 A 348.4,348.4 0 0,1 976.7260155766247,99.39153824035196 L 932.8938307266511,260.00429496891877 A 181.91361000768848,181.91361000768848 0 0 0 711.4928007399817,380.8391062003769 Z "/><path class="wedge" fill="rgb(214,149,134)" d=" M 711.4928007399817,380.8391062003769 L 552.6999141535617,330.81374041236484 A 348.4,348.4 0 0,1 976.7260155766247,99.39153824035196 L 932.8938307266511,260.00429496891877 A 181.91361000768848,181.91361000768848 0 0 0 711.4928007399817,380.8391062003769 Z "/><path class="wedge" fill="rgb(211,151,123)" d=" M 932.8938307266511,260.00429496891877 L 976.7260155766247,99.39153824035196 A 348.4,348.4 0 0,1 987.6177200377726,102.55531460278678 L 938.5808263571456,261.65622946762005 A 181.91361000768848,181.91361000768848 0 0 0 932.8938307266511,260.00429496891877 Z "/><path class="wedge" fill="url(#hiddenPattern)" d=" M 932.8938307266511,260.00429496891877 L 976.7260155766247,99.39153824035196 A 348.4,348.4 0 0,1 987.6177200377726,102.55531460278678 L 938.5808263571456,261.65622946762005 A 181.91361000768848,181.91361000768848 0 0 0 932.8938307266511,260.00429496891877 Z "/><path class="wedge" fill="rgb(211,152,123)" d=" M 926.0000318151635,302.47480036634323 L 987.6177200377724,102.55531460278667 A 348.4,348.4 0 0,1 1225.29592855711,510.2077038025814 L 1020.9623259245725,465.34882368869813 A 139.20023831308143,139.20023831308143 0 0 0 926.0000318151635,302.47480036634323 Z "/><path class="wedge" fill="rgb(214,161,134)" d=" M 938.5808263571455,261.65622946761994 L 987.6177200377724,102.55531460278667 A 348.4,348.4 0 0,1 1232.9056318955459,416.94652875171545 L 1066.655480597373,425.81248871139695 A 181.91361000768848,181.91361000768848 0 0 0 938.5808263571455,261.65622946761994 Z "/><path class="wedge" fill="rgb(214,161,134)" d=" M 938.5808263571455,261.65622946761994 L 987.6177200377724,102.55531460278667 A 348.4,348.4 0 0,1 1232.9056318955459,416.94652875171545 L 1066.655480597373,425.81248871139695 A 181.91361000768848,181.91361000768848 0 0 0 938.5808263571455,261.65622946761994 Z "/><path class="wedge" fill="rgb(214,161,134)" d=" M 938.5808263571455,261.65622946761994 L 987.6177200377724,102.55531460278667 A 348.4,348.4 0 0,1 1232.9056318955459,416.94652875171545 L 1066.655480597373,425.81248871139695 A 181.91361000768848,181.91361000768848 0 0 0 938.5808263571455,261.65622946761994 Z "/><path class="wedge" fill="rgb(214,170,134)" d=" M 1066.655480597373,425.81248871139695 L 1232.9056318955459,416.94652875171545 A 348.4,348.4 0 0,1 1225.29592855711,510.2077038025814 L 1062.682149353451,474.507887755777 A 181.91361000768848,181.91361000768848 0 0 0 1066.655480597373,425.81248871139695 Z "/><path class="wedge" fill="rgb(218,177,145)" d=" M 1102.2531914372462,423.914097182137 L 1232.9056318955459,416.94652875171545 A 348.4,348.4 0 0,1 1230.7393702071506,478.4749681647685 L 1100.900447410862,462.3361536283297 A 217.56190460136557,217.56190460136557 0 0 0 1102.2531914372462,423.914097182137 Z "/><path class="wedge" fill="rgb(218,177,145)" d=" M 1102.2531914372462,423.914097182137 L 1232.9056318955459,416.94652875171545 A 348.4,348.4 0 0,1 1230.7393702071506,478.4749681647685 L 1100.900447410862,462.3361536283297 A 217.56190460136557,217.56190460136557 0 0 0 1102.2531914372462,423.914097182137 Z "/><path class="wedge" fill="rgb(218,179,145)" d=" M 1100.900447410862,462.3361536283297 L 1230.7393702071506,478.4749681647685 A 348.4,348.4 0 0,1 1225.29592855711,510.2077038025814 L 1097.5012352037172,482.1519814227448 A 217.56190460136557,217.56190460136557 0 0 0 1100.900447410862,462.3361536283297 Z "/><path class="wedge" fill="rgb(218,179,145)" d=" M 1100.900447410862,462.3361536283297 L 1230.7393702071506,478.4749681647685 A 348.4,348.4 0 0,1 1225.29592855711,510.2077038025814 L 1097.5012352037172,482.1519814227448 A 217.56190460136557,217.56190460136557 0 0 0 1100.900447410862,462.3361536283297 Z "/><path class="wedge" fill="rgb(211,164,123)" d=" M 1020.9623259245725,465.34882368869813 L 1225.29592855711,510.2077038025814 A 348.4,348.4 0 0,1 1201.313823867616,581.5415174881674 L 1011.3804812402245,493.8496384556744 A 139.20023831308143,139.20023831308143 0 0 0 1020.9623259245725,465.34882368869813 Z "/><path class="wedge" fill="rgb(214,172,134)" d=" M 1062.682149353451,474.507887755777 L 1225.29592855711,510.2077038025814 A 348.4,348.4 0 0,1 1203.1419308035152,577.5150409802121 L 1051.1146588039142,509.6517473596447 A 181.91361000768848,181.91361000768848 0 0 0 1062.682149353451,474.507887755777 Z "/><path class="wedge" fill="rgb(214,172,134)" d=" M 1062.682149353451,474.507887755777 L 1225.29592855711,510.2077038025814 A 348.4,348.4 0 0,1 1203.1419308035152,577.5150409802121 L 1051.1146588039142,509.6517473596447 A 181.91361000768848,181.91361000768848 0 0 0 1062.682149353451,474.507887755777 Z "/><path class="wedge" fill="rgb(214,172,134)" d=" M 1062.682149353451,474.507887755777 L 1225.29592855711,510.2077038025814 A 348.4,348.4 0 0,1 1203.1419308035152,577.5150409802121 L 1051.1146588039142,509.6517473596447 A 181.91361000768848,181.91361000768848 0 0 0 1062.682149353451,474.507887755777 Z "/><path class="wedge" fill="rgb(211,166,123)" d=" M 1051.1146588039142,509.6517473596447 L 1203.1419308035152,577.5150409802121 A 348.4,348.4 0 0,1 1201.313823867616,581.5415174881678 L 1050.1601308699603,511.75413219653717 A 181.91361000768848,181.91361000768848 0 0 0 1051.1146588039142,509.6517473596447 Z "/><path class="wedge" fill="url(#hiddenPattern)" d=" M 1051.1146588039142,509.6517473596447 L 1203.1419308035152,577.5150409802121 A 348.4,348.4 0 0,1 1201.313823867616,581.5415174881678 L 1050.1601308699603,511.75413219653717 A 181.91361000768848,181.91361000768848 0 0 0 1051.1146588039142,509.6517473596447 Z "/><path class="wedge" fill="rgb(112,207,112)" d=" M 964.078455966904,472.0103793720418 L 1201.313823867616,581.5415174881674 A 348.4,348.4 0 0,1 885.9126655479696,783.8988045926644 L 885.2281663869924,522.5997011481661 A 87.1,87.1 0 0 0 964.078455966904,472.0103793720418 Z "/><path class="wedge" fill="rgb(123,211,123)" d=" M 1011.3804812402245,493.8496384556744 L 1201.313823867616,581.5415174881674 A 348.4,348.4 0 0,1 1024.170619184215,754.8964601492669 L 940.60442984105,563.1121221846515 A 139.20023831308143,139.20023831308143 0 0 0 1011.3804812402245,493.8496384556744 Z "/><path class="wedge" fill="rgb(134,214,134)" d=" M 1050.1601308699603,511.75413219653706 L 1201.313823867616,581.5415174881674 A 348.4,348.4 0 0,1 1080.3132659286841,724.0052653804971 L 986.9808877367353,586.1401674270736 A 181.91361000768848,181.91361000768848 0 0 0 1050.1601308699603,511.75413219653706 Z "/><path class="wedge" fill="rgb(145,218,145)" d=" M 1082.5253673145219,526.6971030298489 L 1201.313823867616,581.5415174881674 A 348.4,348.4 0 0,1 1105.563791888133,705.1927394423667 L 1022.733291186227,603.9123595012661 A 217.56190460136557,217.56190460136557 0 0 0 1082.5253673145219,526.6971030298489 Z "/><path class="wedge" fill="rgb(156,222,156)" d=" M 1109.9431975722334,539.3558654200282 L 1201.313823867616,581.5415174881674 A 348.4,348.4 0 0,1 1115.1897778217506,697.0248098868883 L 1048.6970020423055,621.4805754333645 A 247.76093904440202,247.76093904440202 0 0 0 1109.9431975722334,539.3558654200282 Z "/><path class="wedge" fill="rgb(156,222,156)" d=" M 1109.9431975722334,539.3558654200282 L 1201.313823867616,581.5415174881674 A 348.4,348.4 0 0,1 1115.1897778217506,697.0248098868883 L 1048.6970020423055,621.4805754333645 A 247.76093904440202,247.76093904440202 0 0 0 1109.9431975722334,539.3558654200282 Z "/><path class="wedge" fill="rgb(167,225,167)" d=" M 1133.4656823594999,550.2161538874157 L 1201.313823867616,581.5415174881674 A 348.4,348.4 0 0,1 1125.605818467212,687.4749989973669 L 1073.9967631959767,633.4272966888019 A 273.66949277019006,273.66949277019006 0 0 0 1133.4656823594999,550.2161538874157 Z "/><path class="wedge" fill="rgb(167,225,176)" d=" M 1073.9967631959767,633.4272966888019 L 1125.605818467212,687.4749989973669 A 348.4,348.4 0 0,1 1115.1897778217506,697.0248098868883 L 1065.8149246192918,640.9287085779711 A 273.66949277019006,273.66949277019006 0 0 0 1073.9967631959767,633.4272966888019 Z "/><path class="wedge" fill="url(#hiddenPattern)" d=" M 1073.9967631959767,633.4272966888019 L 1125.605818467212,687.4749989973669 A 348.4,348.4 0 0,1 1115.1897778217506,697.0248098868883 L 1065.8149246192918,640.9287085779711 A 273.66949277019006,273.66949277019006 0 0 0 1073.9967631959767,633.4272966888019 Z "/><path class="wedge" fill="rgb(145,218,158)" d=" M 1048.6970020423055,621.4805754333645 L 1115.1897778217506,697.0248098868883 A 348.4,348.4 0 0,1 1105.563791888133,705.1927394423667 L 1041.8515849523476,627.2891113022331 A 247.76093904440202,247.76093904440202 0 0 0 1048.6970020423055,621.4805754333645 Z "/><path class="wedge" fill="url(#hiddenPattern)" d=" M 1048.6970020423055,621.4805754333645 L 1115.1897778217506,697.0248098868883 A 348.4,348.4 0 0,1 1105.563791888133,705.1927394423667 L 1041.8515849523476,627.2891113022331 A 247.76093904440202,247.76093904440202 0 0 0 1048.6970020423055,621.4805754333645 Z "/><path class="wedge" fill="rgb(145,218,159)" d=" M 1022.733291186227,603.9123595012661 L 1105.563791888133,705.1927394423667 A 348.4,348.4 0 0,1 1080.3132659286841,724.0052653804971 L 1006.9653448029779,615.6600316409397 A 217.56190460136557,217.56190460136557 0 0 0 1022.733291186227,603.9123595012661 Z "/><path class="wedge" fill="rgb(156,222,169)" d=" M 1041.8515849523476,627.2891113022331 L 1105.563791888133,705.1927394423667 A 348.4,348.4 0 0,1 1092.132000701629,715.6408472274979 L 1032.299710103276,634.7191715665306 A 247.76093904440202,247.76093904440202 0 0 0 1041.8515849523476,627.2891113022331 Z "/><path class="wedge" fill="rgb(156,222,169)" d=" M 1041.8515849523476,627.2891113022331 L 1105.563791888133,705.1927394423667 A 348.4,348.4 0 0,1 1092.132000701629,715.6408472274979 L 1032.299710103276,634.7191715665306 A 247.76093904440202,247.76093904440202 0 0 0 1041.8515849523476,627.2891113022331 Z "/><path class="wedge" fill="url(#hiddenPattern)" d=" M 1041.8515849523476,627.2891113022331 L 1105.563791888133,705.1927394423667 A 348.4,348.4 0 0,1 1092.132000701629,715.6408472274979 L 1032.299710103276,634.7191715665306 A 247.76093904440202,247.76093904440202 0 0 0 1041.8515849523476,627.2891113022331 Z "/><path class="wedge" fill="rgb(145,218,162)" d=" M 1032.299710103276,634.7191715665306 L 1092.132000701629,715.6408472274979 A 348.4,348.4 0 0,1 1080.3132659286841,724.0052653804971 L 1023.8949430950626,640.6674382030035 A 247.76093904440202,247.76093904440202 0 0 0 1032.299710103276,634.7191715665306 Z "/><path class="wedge" fill="url(#hiddenPattern)" d=" M 1032.299710103276,634.7191715665306 L 1092.132000701629,715.6408472274979 A 348.4,348.4 0 0,1 1080.3132659286841,724.0052653804971 L 1023.8949430950626,640.6674382030035 A 247.76093904440202,247.76093904440202 0 0 0 1032.299710103276,634.7191715665306 Z "/><path class="wedge" fill="rgb(134,214,153)" d=" M 986.9808877367353,586.1401674270736 L 1080.3132659286841,724.0052653804971 A 348.4,348.4 0 0,1 1024.1706191842145,754.896460149267 L 957.6665606854356,602.2696988789609 A 181.91361000768848,181.91361000768848 0 0 0 986.9808877367353,586.1401674270736 Z "/><path class="wedge" fill="rgb(134,214,153)" d=" M 986.9808877367353,586.1401674270736 L 1080.3132659286841,724.0052653804971 A 348.4,348.4 0 0,1 1024.1706191842145,754.896460149267 L 957.6665606854356,602.2696988789609 A 181.91361000768848,181.91361000768848 0 0 0 986.9808877367353,586.1401674270736 Z "/><path class="wedge" fill="rgb(134,214,153)" d=" M 986.9808877367353,586.1401674270736 L 1080.3132659286841,724.0052653804971 A 348.4,348.4 0 0,1 1024.1706191842145,754.896460149267 L 957.6665606854356,602.2696988789609 A 181.91361000768848,181.91361000768848 0 0 0 986.9808877367353,586.1401674270736 Z "/><path class="wedge" fill="rgb(134,214,153)" d=" M 986.9808877367353,586.1401674270736 L 1080.3132659286841,724.0052653804971 A 348.4,348.4 0 0,1 1024.1706191842145,754.896460149267 L 957.6665606854356,602.2696988789609 A 181.91361000768848,181.91361000768848 0 0 0 986.9808877367353,586.1401674270736 Z "/><path class="wedge" fill="rgb(145,218,162)" d=" M 1006.9653448029779,615.6600316409397 L 1080.3132659286841,724.0052653804971 A 348.4,348.4 0 0,1 1042.7384990170333,746.1463035798968 L 983.5014014784914,629.4862269351789 A 217.56190460136557,217.56190460136557 0 0 0 1006.9653448029779,615.6600316409397 Z "/><path class="wedge" fill="rgb(145,218,166)" d=" M 983.5014014784914,629.4862269351789 L 1042.7384990170333,746.1463035798968 A 348.4,348.4 0 0,1 1024.1706191842145,754.896460149267 L 971.9065010742511,634.9503507262018 A 217.56190460136557,217.56190460136557 0 0 0 983.5014014784914,629.4862269351789 Z "/><path class="wedge" fill="rgb(145,218,168)" d=" M 971.9065010742511,634.9503507262018 L 1024.1706191842145,754.896460149267 A 348.4,348.4 0 0,1 1024.1706191842145,754.896460149267 L 971.9065010742511,634.9503507262018 A 217.56190460136557,217.56190460136557 0 0 0 971.9065010742511,634.9503507262018 Z "/><path class="wedge" fill="url(#hiddenPattern)" d=" M 971.9065010742511,634.9503507262018 L 1024.1706191842145,754.896460149267 A 348.4,348.4 0 0,1 1024.1706191842145,754.896460149267 L 971.9065010742511,634.9503507262018 A 217.56190460136557,217.56190460136557 0 0 0 971.9065010742511,634.9503507262018 Z "/><path class="wedge" fill="rgb(123,211,151)" d=" M 940.60442984105,563.1121221846515 L 1024.170619184215,754.8964601492669 A 348.4,348.4 0 0,1 943.6567601000569,778.926767294811 L 908.4358065000033,572.7132257477866 A 139.20023831308143,139.20023831308143 0 0 0 940.60442984105,563.1121221846515 Z "/><path class="wedge" fill="rgb(123,211,151)" d=" M 940.60442984105,563.1121221846515 L 1024.170619184215,754.8964601492669 A 348.4,348.4 0 0,1 943.6567601000569,778.926767294811 L 908.4358065000033,572.7132257477866 A 139.20023831308143,139.20023831308143 0 0 0 940.60442984105,563.1121221846515 Z "/><path class="wedge" fill="rgb(134,214,160)" d=" M 957.6665606854357,602.2696988789609 L 1024.170619184215,754.8964601492669 A 348.4,348.4 0 0,1 974.0135241353373,772.3369821159899 L 931.4775301807282,611.3760947210532 A 181.91361000768848,181.91361000768848 0 0 0 957.6665606854357,602.2696988789609 Z "/><path class="wedge" fill="rgb(134,214,160)" d=" M 957.6665606854357,602.2696988789609 L 1024.170619184215,754.8964601492669 A 348.4,348.4 0 0,1 974.0135241353373,772.3369821159899 L 931.4775301807282,611.3760947210532 A 181.91361000768848,181.91361000768848 0 0 0 957.6665606854357,602.2696988789609 Z "/><path class="wedge" fill="rgb(134,214,160)" d=" M 957.6665606854357,602.2696988789609 L 1024.170619184215,754.8964601492669 A 348.4,348.4 0 0,1 974.0135241353373,772.3369821159899 L 931.4775301807282,611.3760947210532 A 181.91361000768848,181.91361000768848 0 0 0 957.6665606854357,602.2696988789609 Z "/><path class="wedge" fill="rgb(145,218,169)" d=" M 971.9065010742513,634.9503507262017 L 1024.170619184215,754.8964601492669 A 348.4,348.4 0 0,1 986.1358306902117,768.8978160555357 L 948.1552926188396,643.6936390671012 A 217.56190460136557,217.56190460136557 0 0 0 971.9065010742513,634.9503507262017 Z "/><path class="wedge" fill="rgb(145,218,173)" d=" M 948.1552926188396,643.6936390671012 L 986.1358306902117,768.8978160555357 A 348.4,348.4 0 0,1 974.013524135337,772.3369821159899 L 940.5853956548896,645.8412611060014 A 217.56190460136557,217.56190460136557 0 0 0 948.1552926188396,643.6936390671012 Z "/><path class="wedge" fill="url(#hiddenPattern)" d=" M 948.1552926188396,643.6936390671012 L 986.1358306902117,768.8978160555357 A 348.4,348.4 0 0,1 974.013524135337,772.3369821159899 L 940.5853956548896,645.8412611060014 A 217.56190460136557,217.56190460136557 0 0 0 948.1552926188396,643.6936390671012 Z "/><path class="wedge" fill="rgb(123,211,159)" d=" M 931.4775301807282,611.3760947210532 L 974.0135241353373,772.3369821159899 A 348.4,348.4 0 0,1 943.6567601000569,778.926767294811 L 915.6270464441915,614.8168857975587 A 181.91361000768848,181.91361000768848 0 0 0 931.4775301807282,611.3760947210532 Z "/><path class="wedge" fill="url(#hiddenPattern)" d=" M 931.4775301807282,611.3760947210532 L 974.0135241353373,772.3369821159899 A 348.4,348.4 0 0,1 943.6567601000569,778.926767294811 L 915.6270464441915,614.8168857975587 A 181.91361000768848,181.91361000768848 0 0 0 931.4775301807282,611.3760947210532 Z "/><path class="wedge" fill="rgb(123,211,161)" d=" M 908.4358065000033,572.7132257477866 L 943.6567601000569,778.926767294811 A 348.4,348.4 0 0,1 885.9126655479696,783.8988045926644 L 885.3646477088906,574.699760698311 A 139.20023831308143,139.20023831308143 0 0 0 908.4358065000033,572.7132257477866 Z "/><path class="wedge" fill="rgb(134,214,168)" d=" M 915.6270464441915,614.8168857975587 L 943.6567601000569,778.926767294811 A 348.4,348.4 0 0,1 897.598337097307,783.6721440643732 L 891.5780969617247,617.2946372872191 A 181.91361000768848,181.91361000768848 0 0 0 915.6270464441915,614.8168857975587 Z "/><path class="wedge" fill="rgb(145,218,176)" d=" M 921.6288072477433,649.9563191267196 L 943.6567601000569,778.926767294811 A 348.4,348.4 0 0,1 900.8972968218678,783.537118643626 L 894.9272278260012,652.8352996672753 A 217.56190460136557,217.56190460136557 0 0 0 921.6288072477433,649.9563191267196 Z "/><path class="wedge" fill="rgb(145,218,176)" d=" M 921.6288072477433,649.9563191267196 L 943.6567601000569,778.926767294811 A 348.4,348.4 0 0,1 900.8972968218678,783.537118643626 L 894.9272278260012,652.8352996672753 A 217.56190460136557,217.56190460136557 0 0 0 921.6288072477433,649.9563191267196 Z "/><path class="wedge" fill="rgb(145,218,176)" d=" M 921.6288072477433,649.9563191267196 L 943.6567601000569,778.926767294811 A 348.4,348.4 0 0,1 900.8972968218678,783.537118643626 L 894.9272278260012,652.8352996672753 A 217.56190460136557,217.56190460136557 0 0 0 921.6288072477433,649.9563191267196 Z "/><path class="wedge" fill="rgb(156,222,184)" d=" M 926.7131284836174,679.7242777208546 L 943.6567601000569,778.926767294811 A 348.4,348.4 0 0,1 908.924642584771,783.0775762001786 L 902.0137540559832,682.6760811427481 A 247.76093904440202,247.76093904440202 0 0 0 926.7131284836174,679.7242777208546 Z "/><path class="wedge" fill="rgb(156,222,187)" d=" M 902.0137540559832,682.6760811427481 L 908.924642584771,783.0775762001786 A 348.4,348.4 0 0,1 900.8972968218678,783.537118643626 L 896.305192849752,683.002879843435 A 247.76093904440202,247.76093904440202 0 0 0 902.0137540559832,682.6760811427481 Z "/><path class="wedge" fill="url(#hiddenPattern)" d=" M 902.0137540559832,682.6760811427481 L 908.924642584771,783.0775762001786 A 348.4,348.4 0 0,1 900.8972968218678,783.537118643626 L 896.305192849752,683.002879843435 A 247.76093904440202,247.76093904440202 0 0 0 902.0137540559832,682.6760811427481 Z "/><path class="wedge" fill="rgb(134,214,173)" d=" M 894.9272278260012,652.8352996672753 L 900.8972968218678,783.537118643626 A 348.4,348.4 0 0,1 897.598337097307,783.6721440643732 L 892.8671590519522,652.9196176572505 A 217.56190460136557,217.56190460136557 0 0 0 894.9272278260012,652.8352996672753 Z "/><path class="wedge" fill="url(#hiddenPattern)" d=" M 894.9272278260012,652.8352996672753 L 900.8972968218678,783.537118643626 A 348.4,348.4 0 0,1 897.598337097307,783.6721440643732 L 892.8671590519522,652.9196176572505 A 217.56190460136557,217.56190460136557 0 0 0 894.9272278260012,652.8352996672753 Z "/><path class="wedge" fill="rgb(123,211,166)" d=" M 891.5780969617247,617.2946372872191 L 897.598337097307,783.6721440643732 A 348.4,348.4 0 0,1 885.9126655479696,783.8988045926644 L 885.4765392783031,617.4129858375856 A 181.91361000768848,181.91361000768848 0 0 0 891.5780969617247,617.2946372872191 Z "/><path class="wedge" fill="url(#hiddenPattern)" d=" M 891.5780969617247,617.2946372872191 L 897.598337097307,783.6721440643732 A 348.4,348.4 0 0,1 885.9126655479696,783.8988045926644 L 885.4765392783031,617.4129858375856 A 181.91361000768848,181.91361000768848 0 0 0 891.5780969617247,617.2946372872191 Z "/><path class="wedge" fill="rgb(112,112,207)" d=" M 885.2281663869924,522.5997011481661 L 885.9126655479696,783.8988045926644 A 348.4,348.4 0 0,1 885.0000000000001,783.9 L 885,522.6 A 87.1,87.1 0 0 0 885.2281663869924,522.5997011481661 Z "/><path class="wedge" fill="rgb(112,112,207)" d=" M 885.2281663869924,522.5997011481661 L 885.9126655479696,783.8988045926644 A 348.4,348.4 0 0,1 885.0000000000001,783.9 L 885,522.6 A 87.1,87.1 0 0 0 885.2281663869924,522.5997011481661 Z "/><path class="wedge" fill="rgb(112,112,207)" d=" M 885.2281663869924,522.5997011481661 L 885.9126655479696,783.8988045926644 A 348.4,348.4 0 0,1 885.0000000000001,783.9 L 885,522.6 A 87.1,87.1 0 0 0 885.2281663869924,522.5997011481661 Z "/><path class="wedge" fill="rgb(112,112,207)" d=" M 885.2281663869924,522.5997011481661 L 885.9126655479696,783.8988045926644 A 348.4,348.4 0 0,1 885.0000000000001,783.9 L 885,522.6 A 87.1,87.1 0 0 0 885.2281663869924,522.5997011481661 Z "/><path class="wedge" fill="rgb(112,112,207)" d=" M 885.2281663869924,522.5997011481661 L 885.9126655479696,783.8988045926644 A 348.4,348.4 0 0,1 885.0000000000001,783.9 L 885,522.6 A 87.1,87.1 0 0 0 885.2281663869924,522.5997011481661 Z "/><path class="wedge" fill="rgb(112,112,207)" d=" M 885.2281663869924,522.5997011481661 L 885.9126655479696,783.8988045926644 A 348.4,348.4 0 0,1 885.0000000000001,783.9 L 885,522.6 A 87.1,87.1 0 0 0 885.2281663869924,522.5997011481661 Z "/><path class="wedge" fill="rgb(112,112,207)" d=" M 885.2281663869924,522.5997011481661 L 885.9126655479696,783.8988045926644 A 348.4,348.4 0 0,1 885.0000000000001,783.9 L 885,522.6 A 87.1,87.1 0 0 0 885.2281663869924,522.5997011481661 Z "/><rect fill="rgb(112,112,207)" x="1884.935" y="835.935" width="22" height="22"/><path class="line" d="M 885.4563331654202,783.8997011480379 L 885.5418956339365,849.2246451132951 A 413.72499999999997,413.72499999999997 0 0,0 928.4697181955439,846.935 L 1298.725,846.935 L 1717.6016666666667,846.935"/><text x="1877.6016666666667" y="846.935" style="font-color:black;font-weight:normal" text-anchor="end">Malassezia restricta&#160;&#160;&#160;0.04%</text><circle cx="885" cy="435.5" r="87.1"/><circle cx="885" cy="435.5" r="348.4"/><text x="885" y="435.5" text-anchor="middle" style="font-color:black;font-weight:bold" transform="rotate(360,885,435.5)">Root</text><line x1="1201.313823867616" y1="581.5415174881674" x2="964.078455966904" y2="472.0103793720418"/><path class="line" d=" M 964.078455966904,472.0103793720418 A 87.1,87.1 0 1 0 885,522.6"/><text x="885" y="332.7699285060756" text-anchor="middle" style="font-color:black;font-weight:normal" transform="rotate(327.39134218483366,885,435.5)">Viruses unclassified</text><path class="line" d=" M 752.2323446002249,393.67350091072353 A 139.20023831308143,139.20023831308143 0 0 0 885,574.7002383130814"/><line x1="552.6999141535617" y1="330.81374041236484" x2="752.2323446002249" y2="393.67350091072353"/><text x="885" y="587.5142498214635" text-anchor="middle" style="font-color:black;font-weight:normal" transform="rotate(53.74313382183827,885,435.5)">Caudovirales</text><path class="line" d=" M 707.0908194840022,473.4589909528095 A 181.91361000768848,181.91361000768848 0 0 0 885,617.4136100076885"/><line x1="544.2692625408624" y1="508.1988620994322" x2="707.0908194840022" y2="473.4589909528095"/><text x="885" y="628.1080983857915" text-anchor="middle" style="font-color:black;font-weight:normal" transform="rotate(38.97793735671567,885,435.5)">Siphoviridae</text><path class="line" d=" M 683.604395679313,517.7981949624595 A 217.56190460136557,217.56190460136557 0 0 0 885,653.0619046013655"/><line x1="562.488443236919" y1="567.2909547512802" x2="683.604395679313" y2="517.7981949624595"/><text x="885" y="662.1216149342765" text-anchor="middle" style="font-color:black;font-weight:normal" transform="rotate(33.88656838353805,885,435.5)">Siphoviridae unclassified</text><path class="line" d=" M 764.8150699303891,652.1588689630005 A 247.76093904440202,247.76093904440202 0 0 0 885,683.260939044402"/><line x1="715.9966462116598" y1="740.1644488749764" x2="764.8150699303891" y2="652.1588689630005"/><text x="586.9195304777991" y="435.5" text-anchor="end" style="font-color:black;font-weight:normal" transform="rotate(-75.49100370448757,885,435.5)">Streptococcus phage SM1&#160;&#160;&#160;8%</text><path class="line" d=" M 676.174388390014,568.8317173514208 A 247.76093904440202,247.76093904440202 0 0 0 764.8150699303891,652.1588689630005"/><line x1="591.3506323251363" y1="622.9902900529855" x2="676.174388390014" y2="568.8317173514208"/><text x="586.9195304777991" y="435.5" text-anchor="end" style="font-color:black;font-weight:normal" transform="rotate(-46.769784524033284,885,435.5)">Staphylococcus phage StB20&#160;&#160;&#160;8%</text><path class="line" d=" M 657.917616786003,534.5912415403868 A 247.76093904440202,247.76093904440202 0 0 0 676.174388390014,568.8317173514208"/><line x1="565.6780656511072" y1="574.8415309363343" x2="657.917616786003" y2="534.5912415403868"/><text x="586.9195304777991" y="435.5" text-anchor="end" style="font-color:black;font-weight:normal" transform="rotate(-28.066213090176074,885,435.5)">Lactococcus phage bIL285&#160;&#160;&#160;2%</text><path class="line" d=" M 655.6493508717195,529.2217299274841 A 247.76093904440202,247.76093904440202 0 0 0 657.917616786003,534.5912415403868"/><path class="line" d=" M 672.2272439786515,480.89753989869257 A 217.56190460136557,217.56190460136557 0 0 0 683.604395679313,517.7981949624595"/><text x="602.0190476993173" y="435.5" text-anchor="end" style="font-color:black;font-weight:normal" transform="rotate(-17.13549425974628,885,435.5)">Lactococcus virus bIL67&#160;&#160;&#160;3%</text><path class="line" d=" M 708.1237558054632,392.9869932177929 A 181.91361000768848,181.91361000768848 0 0 0 707.0908194840022,473.4589909528095"/><line x1="546.2475368128196" y1="354.07931046338445" x2="708.1237558054632" y2="392.9869932177929"/><text x="885" y="228.63258377673756" text-anchor="middle" style="font-color:black;font-weight:normal" transform="rotate(270.7354066426213,885,435.5)">Myoviridae</text><line x1="539.9714360556952" y1="387.1486808604898" x2="669.5434227508697" y2="405.30652961544115"/><path class="line" d=" M 669.5434227508697,405.30652961544115 A 217.56190460136557,217.56190460136557 0 0 0 672.2272439786515,480.89753989869257"/><text x="602.0190476993173" y="435.5" text-anchor="end" style="font-color:black;font-weight:normal" transform="rotate(-2.033404028907731,885,435.5)">Streptococcus phage EJ 1&#160;&#160;&#160;6%</text><path class="line" d=" M 673.4625973610592,384.6560267234714 A 217.56190460136557,217.56190460136557 0 0 0 669.5434227508697,405.30652961544115"/><text x="602.0190476993173" y="435.5" text-anchor="end" style="font-color:black;font-weight:normal" transform="rotate(10.746127900282234,885,435.5)">Pseudomonas virus EL&#160;&#160;&#160;2%</text><path class="line" d=" M 711.4928007399817,380.8391062003769 A 181.91361000768848,181.91361000768848 0 0 0 708.1237558054632,392.9869932177929"/><text x="619.8431949961557" y="435.5" text-anchor="end" style="font-color:black;font-weight:normal" transform="rotate(15.500603107743906,885,435.5)">Escherichia virus phiEco32&#160;&#160;&#160;1%</text><line x1="987.6177200377724" y1="102.55531460278667" x2="926.0000318151635" y2="302.47480036634323"/><path class="line" d=" M 926.0000318151635,302.47480036634323 A 139.20023831308143,139.20023831308143 0 0 0 752.2323446002249,393.67350091072353"/><text x="885" y="266.40040150069365" text-anchor="middle" style="font-color:black;font-weight:normal" transform="rotate(332.308110356137,885,435.5)">Retroviridae</text><line x1="976.7260155766247" y1="99.39153824035196" x2="932.8938307266511" y2="260.00429496891877"/><path class="line" d=" M 932.8938307266511,260.00429496891877 A 181.91361000768848,181.91361000768848 0 0 0 711.4928007399817,380.8391062003769"/><text x="619.8431949961557" y="435.5" text-anchor="end" style="font-color:black;font-weight:normal" transform="rotate(61.3754586208887,885,435.5)">Human endogenous retrovirus K&#160;&#160;&#160;24%</text><path class="line" d=" M 938.5808263571456,261.65622946762005 A 181.91361000768848,181.91361000768848 0 0 0 932.8938307266511,260.00429496891877"/><path class="line" d=" M 1020.9623259245725,465.34882368869813 A 139.20023831308143,139.20023831308143 0 0 0 926.0000318151635,302.47480036634323"/><line x1="1225.29592855711" y1="510.2077038025814" x2="1020.9623259245725" y2="465.34882368869813"/><text x="885" y="283.4857501785365" text-anchor="middle" style="font-color:black;font-weight:normal" transform="rotate(419.7560455076243,885,435.5)">Herpesvirales</text><line x1="1232.9056318955459" y1="416.94652875171545" x2="1066.655480597373" y2="425.81248871139695"/><path class="line" d=" M 1066.655480597373,425.81248871139695 A 181.91361000768848,181.91361000768848 0 0 0 938.5808263571455,261.65622946761994"/><text x="1150.1568050038443" y="435.5" text-anchor="start" style="font-color:black;font-weight:normal" transform="rotate(322.03865809636994,885,435.5)">19%&#160;&#160;&#160;Cyprinid herpesvirus 3</text><path class="line" d=" M 1062.682149353451,474.507887755777 A 181.91361000768848,181.91361000768848 0 0 0 1066.655480597373,425.81248871139695"/><text x="885" y="628.1080983857915" text-anchor="middle" style="font-color:black;font-weight:normal" transform="rotate(274.6647505353969,885,435.5)">Herpesviridae</text><line x1="1230.7393702071506" y1="478.4749681647685" x2="1100.900447410862" y2="462.3361536283297"/><path class="line" d=" M 1100.900447410862,462.3361536283297 A 217.56190460136557,217.56190460136557 0 0 0 1102.2531914372462,423.914097182137"/><text x="1167.9809523006827" y="435.5" text-anchor="start" style="font-color:black;font-weight:normal" transform="rotate(362.0164074906722,885,435.5)">3%&#160;&#160;&#160;Ateline gammaherpesvirus 3</text><path class="line" d=" M 1097.5012352037172,482.1519814227448 A 217.56190460136557,217.56190460136557 0 0 0 1100.900447410862,462.3361536283297"/><text x="1167.9809523006827" y="435.5" text-anchor="start" style="font-color:black;font-weight:normal" transform="rotate(369.73379490192656,885,435.5)">1%&#160;&#160;&#160;Alcelaphine gammaherpesvirus 1</text><path class="line" d=" M 1011.3804812402245,493.8496384556744 A 139.20023831308143,139.20023831308143 0 0 0 1020.9623259245725,465.34882368869813"/><text x="885" y="604.5995984993064" text-anchor="middle" style="font-color:black;font-weight:normal" transform="rotate(288.58241115815923,885,435.5)">Viruses unclassified</text><line x1="1203.1419308035152" y1="577.5150409802121" x2="1051.1146588039142" y2="509.6517473596447"/><path class="line" d=" M 1051.1146588039142,509.6517473596447 A 181.91361000768848,181.91361000768848 0 0 0 1062.682149353451,474.507887755777"/><text x="1150.1568050038443" y="435.5" text-anchor="start" style="font-color:black;font-weight:normal" transform="rotate(378.2187971293551,885,435.5)">3%&#160;&#160;&#160;Human polyomavirus 6</text><path class="line" d=" M 1050.1601308699603,511.75413219653717 A 181.91361000768848,181.91361000768848 0 0 0 1051.1146588039142,509.6517473596447"/><path class="line" d=" M 885.2281663869924,522.5997011481661 A 87.1,87.1 0 0 0 964.078455966904,472.0103793720418"/><line x1="885.9126655479696" y1="783.8988045926644" x2="885.2281663869924" y2="522.5997011481661"/><text x="885" y="559.070166819157" text-anchor="middle" style="font-color:black;font-weight:normal" transform="rotate(327.31629634124505,885,435.5)">Bacteria</text><path class="line" d=" M 940.60442984105,563.1121221846515 A 139.20023831308143,139.20023831308143 0 0 0 1011.3804812402245,493.8496384556744"/><line x1="1024.170619184215" y1="754.8964601492669" x2="940.60442984105" y2="563.1121221846515"/><text x="885" y="587.5142498214635" text-anchor="middle" style="font-color:black;font-weight:normal" transform="rotate(315.61924143105995,885,435.5)">Firmicutes</text><path class="line" d=" M 986.9808877367353,586.1401674270736 A 181.91361000768848,181.91361000768848 0 0 0 1050.1601308699603,511.75413219653706"/><line x1="1080.3132659286841" y1="724.0052653804971" x2="986.9808877367353" y2="586.1401674270736"/><text x="885" y="642.3674162232625" text-anchor="middle" style="font-color:black;font-weight:normal" transform="rotate(310.3426687998674,885,435.5)">Bacilli</text><path class="line" d=" M 1022.733291186227,603.9123595012661 A 217.56190460136557,217.56190460136557 0 0 0 1082.5253673145219,526.6971030298489"/><line x1="1105.563791888133" y1="705.1927394423667" x2="1022.733291186227" y2="603.9123595012661"/><text x="885" y="674.2012287114911" text-anchor="middle" style="font-color:black;font-weight:normal" transform="rotate(307.75261482357433,885,435.5)">Bacillales</text><line x1="1115.1897778217506" y1="697.0248098868883" x2="1048.6970020423055" y2="621.4805754333645"/><path class="line" d=" M 1048.6970020423055,621.4805754333645 A 247.76093904440202,247.76093904440202 0 0 0 1109.9431975722334,539.3558654200282"/><text x="885" y="696.215215907296" text-anchor="middle" style="font-color:black;font-weight:normal" transform="rotate(306.7144939741026,885,435.5)">Listeria</text><path class="line" d=" M 1073.9967631959767,633.4272966888019 A 273.66949277019006,273.66949277019006 0 0 0 1133.4656823594999,550.2161538874157"/><line x1="1125.605818467212" y1="687.4749989973669" x2="1073.9967631959767" y2="633.4272966888019"/><text x="1196.0347463850949" y="435.5" text-anchor="start" style="font-color:black;font-weight:normal" transform="rotate(395.55244225335855,885,435.5)">6%&#160;&#160;&#160;Listeria monocytogenes</text><line x1="1225.15" y1="435.5" x2="1241.65" y2="435.5" class="tick" transform="rotate(407.4842518577939,885,435.5)"/><text x="1244.4" y="435.5" text-anchor="start" style="font-color:black;font-weight:normal" transform="rotate(407.4842518577939,885,435.5)">1 more</text><path class="line" d=" M 1065.8149246192918,640.9287085779711 A 273.66949277019006,273.66949277019006 0 0 0 1073.9967631959767,633.4272966888019"/><path class="line" d=" M 1041.8515849523476,627.2891113022331 A 247.76093904440202,247.76093904440202 0 0 0 1048.6970020423055,621.4805754333645"/><path class="line" d=" M 1006.9653448029779,615.6600316409397 A 217.56190460136557,217.56190460136557 0 0 0 1022.733291186227,603.9123595012661"/><text x="885" y="662.1216149342765" text-anchor="middle" style="font-color:black;font-weight:normal" transform="rotate(323.3125992537744,885,435.5)">Lactobacillales</text><line x1="1092.132000701629" y1="715.6408472274979" x2="1032.299710103276" y2="634.7191715665306"/><path class="line" d=" M 1032.299710103276,634.7191715665306 A 247.76093904440202,247.76093904440202 0 0 0 1041.8515849523476,627.2891113022331"/><text x="1183.080469522201" y="435.5" text-anchor="start" style="font-color:black;font-weight:normal" transform="rotate(412.1219358056557,885,435.5)">0.8%&#160;&#160;&#160;Streptococcus</text><line x1="1225.15" y1="435.5" x2="1241.65" y2="435.5" class="tick" transform="rotate(414.71198978194883,885,435.5)"/><text x="1244.4" y="435.5" text-anchor="start" style="font-color:black;font-weight:normal" transform="rotate(414.71198978194883,885,435.5)">2 more</text><path class="line" d=" M 1023.8949430950626,640.6674382030035 A 247.76093904440202,247.76093904440202 0 0 0 1032.299710103276,634.7191715665306"/><line x1="1024.1706191842145" y1="754.896460149267" x2="957.6665606854356" y2="602.2696988789609"/><path class="line" d=" M 957.6665606854356,602.2696988789609 A 181.91361000768848,181.91361000768848 0 0 0 986.9808877367353,586.1401674270736"/><text x="885" y="628.1080983857915" text-anchor="middle" style="font-color:black;font-weight:normal" transform="rotate(331.1792258612601,885,435.5)">Clostridium</text><path class="line" d=" M 983.5014014784914,629.4862269351789 A 217.56190460136557,217.56190460136557 0 0 0 1006.9653448029779,615.6600316409397"/><line x1="1042.7384990170333" y1="746.1463035798968" x2="983.5014014784914" y2="629.4862269351789"/><text x="1167.9809523006827" y="435.5" text-anchor="start" style="font-color:black;font-weight:normal" transform="rotate(419.4911605865019,885,435.5)">2%&#160;&#160;&#160;Clostridium sporogenes</text><path class="line" d=" M 971.9065010742511,634.9503507262018 A 217.56190460136557,217.56190460136557 0 0 0 983.5014014784914,629.4862269351789"/><text x="1167.9809523006827" y="435.5" text-anchor="start" style="font-color:black;font-weight:normal" transform="rotate(424.7677332176945,885,435.5)">0.9%&#160;&#160;&#160;Clostridium botulinum</text><path class="line" d=" M 971.9065010742511,634.9503507262018 A 217.56190460136557,217.56190460136557 0 0 0 971.9065010742511,634.9503507262018"/><line x1="943.6567601000569" y1="778.926767294811" x2="908.4358065000033" y2="572.7132257477866"/><path class="line" d=" M 908.4358065000033,572.7132257477866 A 139.20023831308143,139.20023831308143 0 0 0 940.60442984105,563.1121221846515"/><text x="885" y="604.5995984993064" text-anchor="middle" style="font-color:black;font-weight:normal" transform="rotate(343.38164806036104,885,435.5)">Actinobacteria</text><line x1="974.0135241353373" y1="772.3369821159899" x2="931.4775301807282" y2="611.3760947210532"/><path class="line" d=" M 931.4775301807282,611.3760947210532 A 181.91361000768848,181.91361000768848 0 0 0 957.6665606854357,602.2696988789609"/><text x="885" y="642.3674162232625" text-anchor="middle" style="font-color:black;font-weight:normal" transform="rotate(340.82651957251124,885,435.5)">Mycobacterium</text><path class="line" d=" M 948.1552926188396,643.6936390671012 A 217.56190460136557,217.56190460136557 0 0 0 971.9065010742513,634.9503507262017"/><line x1="986.1358306902117" y1="768.8978160555357" x2="948.1552926188396" y2="643.6936390671012"/><text x="1167.9809523006827" y="435.5" text-anchor="start" style="font-color:black;font-weight:normal" transform="rotate(429.7903434680101,885,435.5)">2%&#160;&#160;&#160;Mycobacterium canettii</text><path class="line" d=" M 940.5853956548896,645.8412611060014 A 217.56190460136557,217.56190460136557 0 0 0 948.1552926188396,643.6936390671012"/><line x1="1225.15" y1="435.5" x2="1241.65" y2="435.5" class="tick" transform="rotate(437.7523691404197,885,435.5)"/><text x="1244.4" y="435.5" text-anchor="start" style="font-color:black;font-weight:normal" transform="rotate(437.7523691404197,885,435.5)">3 more</text><path class="line" d=" M 915.6270464441915,614.8168857975587 A 181.91361000768848,181.91361000768848 0 0 0 931.4775301807282,611.3760947210532"/><path class="line" d=" M 885.3646477088906,574.699760698311 A 139.20023831308143,139.20023831308143 0 0 0 908.4358065000033,572.7132257477866"/><text x="885" y="587.5142498214635" text-anchor="middle" style="font-color:black;font-weight:normal" transform="rotate(355.07870297054615,885,435.5)">Proteobacteria</text><path class="line" d=" M 891.5780969617247,617.2946372872191 A 181.91361000768848,181.91361000768848 0 0 0 915.6270464441915,614.8168857975587"/><line x1="897.598337097307" y1="783.6721440643732" x2="891.5780969617247" y2="617.2946372872191"/><text x="885" y="628.1080983857915" text-anchor="middle" style="font-color:black;font-weight:normal" transform="rotate(354.11759934997565,885,435.5)">Alpha...teria</text><line x1="900.8972968218678" y1="783.537118643626" x2="894.9272278260012" y2="652.8352996672753"/><path class="line" d=" M 894.9272278260012,652.8352996672753 A 217.56190460136557,217.56190460136557 0 0 0 921.6288072477433,649.9563191267196"/><text x="885" y="674.2012287114911" text-anchor="middle" style="font-color:black;font-weight:normal" transform="rotate(353.8461076240219,885,435.5)">Paracoccus</text><path class="line" d=" M 902.0137540559832,682.6760811427481 A 247.76093904440202,247.76093904440202 0 0 0 926.7131284836174,679.7242777208546"/><line x1="908.924642584771" y1="783.0775762001786" x2="902.0137540559832" y2="682.6760811427481"/><text x="1183.080469522201" y="435.5" text-anchor="start" style="font-color:black;font-weight:normal" transform="rotate(443.1849476147274,885,435.5)">2%&#160;&#160;&#160;Paracoccus sp WN007</text><path class="line" d=" M 896.305192849752,683.002879843435 A 247.76093904440202,247.76093904440202 0 0 0 902.0137540559832,682.6760811427481"/><path class="line" d=" M 892.8671590519522,652.9196176572505 A 217.56190460136557,217.56190460136557 0 0 0 894.9272278260012,652.8352996672753"/><path class="line" d=" M 885.4765392783031,617.4129858375856 A 181.91361000768848,181.91361000768848 0 0 0 891.5780969617247,617.2946372872191"/><line x1="885.0000000000001" y1="783.9" x2="885" y2="522.6"/><path class="line" d=" M 885,522.6 A 87.1,87.1 0 0 0 885.2281663869924,522.5997011481661"/></svg>