<?xml version="1.0" encoding="UTF-8"?><svg xmlns="http://www.w3.org/2000/svg" xmlns:xlink="http://www.w3.org/1999/xlink" fill-opacity="1" color-rendering="auto" color-interpolation="auto" text-rendering="auto" stroke="black" stroke-linecap="square" width="547" stroke-miterlimit="10" shape-rendering="auto" stroke-opacity="1" fill="black" stroke-dasharray="none" font-weight="normal" stroke-width="1" height="295" font-family="'Dialog'" font-style="normal" stroke-linejoin="miter" font-size="12px" stroke-dashoffset="0" image-rendering="auto">
  <!--Generated by ySVG 2.5-->
  <defs id="genericDefs"/>
  <g>
    <defs id="defs1">
      <linearGradient x1="717" gradientUnits="userSpaceOnUse" x2="813.7772" y1="398" y2="426.8599" id="linearGradient1" spreadMethod="reflect">
        <stop stop-opacity="1" stop-color="rgb(232,238,247)" offset="0%"/>
        <stop stop-opacity="1" stop-color="rgb(183,201,227)" offset="100%"/>
      </linearGradient>
      <linearGradient x1="707.4" gradientUnits="userSpaceOnUse" x2="823.3772" y1="456.8599" y2="485.7198" id="linearGradient2" spreadMethod="reflect">
        <stop stop-opacity="1" stop-color="rgb(232,238,247)" offset="0%"/>
        <stop stop-opacity="1" stop-color="rgb(183,201,227)" offset="100%"/>
      </linearGradient>
      <linearGradient x1="548.6228" gradientUnits="userSpaceOnUse" x2="677.4" y1="515.7198" y2="544.5798" id="linearGradient3" spreadMethod="reflect">
        <stop stop-opacity="1" stop-color="rgb(232,238,247)" offset="0%"/>
        <stop stop-opacity="1" stop-color="rgb(183,201,227)" offset="100%"/>
      </linearGradient>
      <linearGradient x1="853.3772" gradientUnits="userSpaceOnUse" x2="982.1544" y1="515.7198" y2="544.5798" id="linearGradient4" spreadMethod="reflect">
        <stop stop-opacity="1" stop-color="rgb(232,238,247)" offset="0%"/>
        <stop stop-opacity="1" stop-color="rgb(183,201,227)" offset="100%"/>
      </linearGradient>
      <linearGradient x1="701" gradientUnits="userSpaceOnUse" x2="829.7772" y1="339.1401" y2="368" id="linearGradient5" spreadMethod="reflect">
        <stop stop-opacity="1" stop-color="rgb(232,238,247)" offset="0%"/>
        <stop stop-opacity="1" stop-color="rgb(183,201,227)" offset="100%"/>
      </linearGradient>
      <linearGradient x1="507.5114" gradientUnits="userSpaceOnUse" x2="718.5114" y1="574.5798" y2="603.4397" id="linearGradient6" spreadMethod="reflect">
        <stop stop-opacity="1" stop-color="rgb(232,238,247)" offset="0%"/>
        <stop stop-opacity="1" stop-color="rgb(183,201,227)" offset="100%"/>
      </linearGradient>
      <linearGradient x1="812.2658" gradientUnits="userSpaceOnUse" x2="1023.2658" y1="574.5798" y2="603.4397" id="linearGradient7" spreadMethod="reflect">
        <stop stop-opacity="1" stop-color="rgb(232,238,247)" offset="0%"/>
        <stop stop-opacity="1" stop-color="rgb(183,201,227)" offset="100%"/>
      </linearGradient>
      <clipPath clipPathUnits="userSpaceOnUse" id="clipPath1">
        <path d="M0 0 L547 0 L547 295 L0 295 L0 0 Z"/>
      </clipPath>
      <clipPath clipPathUnits="userSpaceOnUse" id="clipPath2">
        <path d="M492 324 L1039 324 L1039 619 L492 619 L492 324 Z"/>
      </clipPath>
    </defs>
    <g fill="white" text-rendering="geometricPrecision" shape-rendering="geometricPrecision" transform="translate(-492,-324)" stroke="white">
      <rect x="492" width="547" height="295" y="324" clip-path="url(#clipPath2)" stroke="none"/>
    </g>
    <g fill="url(#linearGradient1)" text-rendering="geometricPrecision" shape-rendering="geometricPrecision" transform="matrix(1,0,0,1,-492,-324)" stroke="url(#linearGradient1)">
      <path d="M717 398 L813.7772 398 L813.7772 426.8599 L717 426.8599 Z" stroke="none" clip-path="url(#clipPath2)"/>
    </g>
    <g text-rendering="geometricPrecision" stroke-miterlimit="1.45" shape-rendering="geometricPrecision" transform="matrix(1,0,0,1,-492,-324)" stroke-linecap="butt">
      <path fill="none" d="M717 398 L813.7772 398 L813.7772 426.8599 L717 426.8599 Z" clip-path="url(#clipPath2)"/>
      <text x="722.3427" xml:space="preserve" y="416.9651" clip-path="url(#clipPath2)" font-family="sans-serif" stroke="none">Quality control</text>
    </g>
    <g fill="url(#linearGradient2)" text-rendering="geometricPrecision" shape-rendering="geometricPrecision" transform="matrix(1,0,0,1,-492,-324)" stroke="url(#linearGradient2)">
      <path d="M707.4 456.8599 L823.3772 456.8599 L823.3772 485.7198 L707.4 485.7198 Z" stroke="none" clip-path="url(#clipPath2)"/>
    </g>
    <g text-rendering="geometricPrecision" stroke-miterlimit="1.45" shape-rendering="geometricPrecision" transform="matrix(1,0,0,1,-492,-324)" stroke-linecap="butt">
      <path fill="none" d="M707.4 456.8599 L823.3772 456.8599 L823.3772 485.7198 L707.4 485.7198 Z" clip-path="url(#clipPath2)"/>
      <text x="715.291" xml:space="preserve" y="475.825" clip-path="url(#clipPath2)" font-family="sans-serif" stroke="none">Sequence sorting</text>
    </g>
    <g fill="url(#linearGradient3)" text-rendering="geometricPrecision" shape-rendering="geometricPrecision" transform="matrix(1,0,0,1,-492,-324)" stroke="url(#linearGradient3)">
      <path d="M548.6228 515.7198 L677.4 515.7198 L677.4 544.5798 L548.6228 544.5798 Z" stroke="none" clip-path="url(#clipPath2)"/>
    </g>
    <g text-rendering="geometricPrecision" stroke-miterlimit="1.45" shape-rendering="geometricPrecision" transform="matrix(1,0,0,1,-492,-324)" stroke-linecap="butt">
      <path fill="none" d="M548.6228 515.7198 L677.4 515.7198 L677.4 544.5798 L548.6228 544.5798 Z" clip-path="url(#clipPath2)"/>
      <text x="555.7507" xml:space="preserve" y="534.685" clip-path="url(#clipPath2)" font-family="sans-serif" stroke="none">Taxonomic analysis</text>
    </g>
    <g fill="url(#linearGradient4)" text-rendering="geometricPrecision" shape-rendering="geometricPrecision" transform="matrix(1,0,0,1,-492,-324)" stroke="url(#linearGradient4)">
      <path d="M853.3772 515.7198 L982.1544 515.7198 L982.1544 544.5798 L853.3772 544.5798 Z" stroke="none" clip-path="url(#clipPath2)"/>
    </g>
    <g text-rendering="geometricPrecision" stroke-miterlimit="1.45" shape-rendering="geometricPrecision" transform="matrix(1,0,0,1,-492,-324)" stroke-linecap="butt">
      <path fill="none" d="M853.3772 515.7198 L982.1544 515.7198 L982.1544 544.5798 L853.3772 544.5798 Z" clip-path="url(#clipPath2)"/>
      <text x="862.6232" xml:space="preserve" y="534.685" clip-path="url(#clipPath2)" font-family="sans-serif" stroke="none">Functional analysis</text>
    </g>
    <g fill="url(#linearGradient5)" text-rendering="geometricPrecision" shape-rendering="geometricPrecision" transform="matrix(1,0,0,1,-492,-324)" stroke="url(#linearGradient5)">
      <ellipse rx="64.3886" ry="14.43" clip-path="url(#clipPath2)" cx="765.3886" cy="353.57" stroke="none"/>
    </g>
    <g text-rendering="geometricPrecision" stroke-miterlimit="1.45" shape-rendering="geometricPrecision" transform="matrix(1,0,0,1,-492,-324)" stroke-linecap="butt">
      <ellipse rx="64.3886" fill="none" ry="14.43" clip-path="url(#clipPath2)" cx="765.3886" cy="353.57"/>
      <text x="721.3173" xml:space="preserve" y="358.1052" clip-path="url(#clipPath2)" font-family="sans-serif" stroke="none">Raw sequences</text>
    </g>
    <g fill="url(#linearGradient6)" text-rendering="geometricPrecision" shape-rendering="geometricPrecision" transform="matrix(1,0,0,1,-492,-324)" stroke="url(#linearGradient6)">
      <rect x="507.5114" y="574.5798" clip-path="url(#clipPath2)" width="211" rx="14.43" ry="14.43" height="28.8599" stroke="none"/>
    </g>
    <g text-rendering="geometricPrecision" stroke-miterlimit="1.45" shape-rendering="geometricPrecision" transform="matrix(1,0,0,1,-492,-324)" stroke-linecap="butt">
      <rect x="507.5114" y="574.5798" clip-path="url(#clipPath2)" fill="none" width="211" rx="14.43" ry="14.43" height="28.8599"/>
      <text x="512.2038" xml:space="preserve" y="593.5449" clip-path="url(#clipPath2)" font-family="sans-serif" stroke="none">Formatted taxonomic assignations</text>
    </g>
    <g fill="url(#linearGradient7)" text-rendering="geometricPrecision" shape-rendering="geometricPrecision" transform="matrix(1,0,0,1,-492,-324)" stroke="url(#linearGradient7)">
      <rect x="812.2658" y="574.5798" clip-path="url(#clipPath2)" width="211" rx="14.43" ry="14.43" height="28.8599" stroke="none"/>
    </g>
    <g text-rendering="geometricPrecision" stroke-miterlimit="1.45" shape-rendering="geometricPrecision" transform="matrix(1,0,0,1,-492,-324)" stroke-linecap="butt">
      <rect x="812.2658" y="574.5798" clip-path="url(#clipPath2)" fill="none" width="211" rx="14.43" ry="14.43" height="28.8599"/>
      <text x="818.5373" xml:space="preserve" y="593.5449" clip-path="url(#clipPath2)" font-family="sans-serif" stroke="none">Formatted functional assignations</text>
    </g>
    <g text-rendering="geometricPrecision" stroke-miterlimit="1.45" shape-rendering="geometricPrecision" transform="matrix(1,0,0,1,-492,-324)" stroke-linecap="butt">
      <path fill="none" d="M765.3886 426.8863 L765.3886 456.85" clip-path="url(#clipPath2)"/>
    </g>
    <g text-rendering="geometricPrecision" stroke-miterlimit="1.45" shape-rendering="geometricPrecision" transform="matrix(1,0,0,1,-492,-324)" stroke-linecap="butt">
      <path fill="none" d="M728.0012 485.7318 L650.3774 515.7161" clip-path="url(#clipPath2)"/>
      <path fill="none" d="M802.7761 485.7318 L880.3998 515.7161" clip-path="url(#clipPath2)"/>
      <path fill="none" d="M765.3886 368.0264 L765.3886 397.9901" clip-path="url(#clipPath2)"/>
      <path fill="none" d="M613.0114 544.6061 L613.0114 574.5699" clip-path="url(#clipPath2)"/>
      <path fill="none" d="M917.7658 544.6061 L917.7658 574.5699" clip-path="url(#clipPath2)"/>
    </g>
  </g>
</svg>
